<svg width="20" height="18" viewBox="0 0 20 18" fill="none" xmlns="http://www.w3.org/2000/svg">
<path fill-rule="evenodd" clip-rule="evenodd" d="M10.1328 5.04388V5.52876L9.65857 5.28564L10.1328 5.04388Z" fill="white"/>
<path fill-rule="evenodd" clip-rule="evenodd" d="M6.87293 15.2359C7.05543 15.2199 7.23494 15.1702 7.39892 15.0865L8.60364 14.4722L8.60345 14.5187C8.6031 14.5887 8.62443 14.6454 8.66224 14.6885C8.7 14.7315 8.75312 14.7597 8.81397 14.7743C8.93513 14.8034 9.08852 14.7794 9.22351 14.7108L9.37786 14.6325L11.0783 15.5207L7.39649 17.3901C7.1609 17.5097 6.86646 17.3602 6.86646 17.1209V15.9079L6.87099 15.9057L6.87293 15.2359ZM14.0369 1.7984L13.966 7.49144L12.2426 6.61449L12.2658 4.25756C12.268 4.04369 12.0047 3.90892 11.7943 4.01622L9.09246 5.39349C8.81658 5.53407 8.64642 5.79275 8.64498 6.073L8.62263 10.4154L7.26285 11.1073C7.14412 11.1677 7.01435 11.2037 6.88238 11.2156L6.89766 5.22561C6.8984 4.92856 7.07898 4.6542 7.37149 4.50562L8.03677 4.16794L13.3858 1.45197C13.6415 1.32216 13.9524 1.45214 14.0193 1.68641L14.0195 1.68701C14.031 1.72209 14.0374 1.75916 14.0369 1.7984Z" fill="#7763AE"/>
<path fill-rule="evenodd" clip-rule="evenodd" d="M14.4425 16.6476C14.4425 16.6476 14.4425 16.6476 14.4425 16.6476C14.4432 16.6468 14.4439 16.6461 14.4446 16.6454C14.4439 16.6461 14.4432 16.6468 14.4425 16.6476ZM14.651 16.5445L14.5698 16.5857V16.5846L14.5698 16.5846L14.4855 16.6263C14.5224 16.5782 14.5464 16.5229 14.5618 16.4683C14.5663 16.4522 14.5701 16.4363 14.5732 16.4206L14.5735 16.4192L14.6878 10.4178C14.6952 10.0306 14.4632 9.67025 14.0817 9.47657L8.80078 6.78791L8.80477 6.12242C8.80637 5.85282 8.97028 5.60418 9.23553 5.46906L9.47632 5.34625L15.9423 8.63669C16.2565 8.79619 16.3402 9.09348 16.3339 9.42025V15.3471C16.3299 15.562 16.1979 15.7591 15.9864 15.8665L14.6553 16.5424L14.651 16.5445Z" fill="#32C9D3"/>
<path fill-rule="evenodd" clip-rule="evenodd" d="M3.23671 6.04337L4.72355 6.79769L4.71856 6.8797L2.95801 7.77327L2.99337 6.05271C3.06155 6.01086 3.15471 6.00175 3.23671 6.04337Z" fill="#32C9D3"/>
<path fill-rule="evenodd" clip-rule="evenodd" d="M12.0901 10.5548L7.37547 12.9752L8.50633 12.3949L12.0901 10.5548ZM0.218904 9.35026L4.84065 6.98096L4.83595 8.76722L3.56648 9.43505L3.56634 9.43512C3.36922 9.53528 3.36882 9.78549 3.56554 9.88629L6.28768 11.2793C6.59518 11.4366 6.97486 11.4371 7.28282 11.2805L10.3805 9.70602L12.0512 10.5548L7.3656 12.9604C6.98407 13.156 6.51257 13.1569 6.13008 12.9628L0.218829 9.96252C0.106958 9.90575 0.0391805 9.78708 0.03401 9.66396C0.0288583 9.54128 0.0859943 9.41774 0.218833 9.3503L0.218904 9.35026Z" fill="white"/>
<path d="M12.309 10.6832L12.263 10.6548L7.34563 13.1477C6.97662 13.3354 6.522 13.3357 6.15266 13.1488L0.27159 10.1724C0.232339 10.1519 0.0138857 10.0281 0 9.81879V11.4812C0 11.7214 0.146291 11.9431 0.383222 12.0622L6.10652 14.9412C6.5045 15.1414 6.99356 15.1402 7.39012 14.9378L12.5951 12.2902L12.6041 11.1752C12.5978 10.9794 12.4816 10.7955 12.309 10.6832Z" fill="#C6C6C6"/>
<path fill-rule="evenodd" clip-rule="evenodd" d="M12.5384 13.7095C12.5372 13.8426 12.4325 13.9436 12.3031 13.9726L10.9902 13.3061L12.5506 12.4947L12.5384 13.7095Z" fill="#32C9D3"/>
<path fill-rule="evenodd" clip-rule="evenodd" d="M3.71583 9.47403L4.83524 8.90723V10.3607L3.71487 9.80838C3.62768 9.76368 3.58701 9.70114 3.58716 9.64104C3.5873 9.58091 3.62833 9.51846 3.71583 9.47403Z" fill="#C6C6C6"/>
<path fill-rule="evenodd" clip-rule="evenodd" d="M1.47607 3.16453L1.52797 3.13854L2.88897 2.44814C3.15659 2.31235 3.48622 2.31226 3.75394 2.44804L5.56422 3.37003L5.30149 3.50329C5.01951 3.64637 4.84541 3.91073 4.84485 4.19708L4.84329 4.7924L1.73549 3.21413L1.7354 3.21409C1.64065 3.16649 1.54987 3.15808 1.47607 3.16453Z" fill="#32C9D3"/>
<path fill-rule="evenodd" clip-rule="evenodd" d="M6.79011 17.4054C6.78551 17.4004 6.78091 17.395 6.77634 17.3893C6.7809 17.395 6.7855 17.4004 6.7901 17.4054C6.7901 17.4054 6.79011 17.4054 6.79011 17.4054ZM6.58881 17.3226L6.69525 17.3766L5.18452 16.6095L6.58881 17.3226ZM6.72873 11.2265C6.72874 11.2265 6.72874 11.2265 6.72874 11.2265L6.73755 5.2118L6.72873 11.2265ZM6.06374 15.0617L4.95537 14.5042L4.95142 16.2239C4.9511 16.3768 5.04373 16.5183 5.19431 16.5946L6.70504 17.3617L6.70513 17.3617L6.74922 17.3844C6.70603 17.3236 6.67002 17.2309 6.67645 17.0927L6.67646 17.0923L6.6814 15.2129C6.46794 15.2085 6.25549 15.1581 6.06374 15.0617ZM11.1755 0.648854L11.1756 0.648822C11.5152 0.476362 11.9337 0.476464 12.2734 0.64895L13.4785 1.26087L13.4787 1.26099L13.5454 1.29592C13.4977 1.29088 13.4535 1.29275 13.4154 1.29763C13.3746 1.30283 13.3408 1.31148 13.317 1.31884C13.3051 1.32253 13.2957 1.32591 13.2892 1.3284C13.286 1.32964 13.2834 1.33066 13.2817 1.33139L13.2796 1.33226L13.2791 1.33251L13.2788 1.33261L13.2784 1.33283L7.80406 4.10003L7.27098 4.3695C6.92887 4.54323 6.71799 4.86443 6.71798 5.2118L6.7092 11.208C6.5699 11.198 6.43257 11.161 6.3076 11.0971L4.99798 10.4269L5.0148 4.26452C5.01533 3.99044 5.18198 3.73742 5.45188 3.60047L11.1755 0.648854ZM13.2877 1.34796L13.2788 1.33261C13.2788 1.33262 13.2788 1.33263 13.2877 1.34796Z" fill="#442B8C"/>
<path fill-rule="evenodd" clip-rule="evenodd" d="M4.85055 6.71277L3.21523 5.88523C3.05199 5.80238 2.84786 5.90492 2.846 6.07061L2.82233 7.86751L1.04895 8.76767L1.09553 3.66875C1.10067 3.38623 1.44901 3.21258 1.72727 3.35375L4.85544 4.93879L4.85055 6.71277Z" fill="#74DBE1"/>
<path fill-rule="evenodd" clip-rule="evenodd" d="M14.1527 7.54795L14.1632 5.96808L15.6147 6.73137C15.6002 6.8022 15.5525 6.8683 15.4716 6.90932L14.1527 7.54795Z" fill="#C6C6C6"/>
<path fill-rule="evenodd" clip-rule="evenodd" d="M15.5999 6.52487L14.1467 5.78597L14.1692 3.98779L18.9419 6.43545C19.2293 6.58284 19.2285 6.94813 18.9408 7.0947L18.9407 7.09475L18.8178 7.15717C18.7394 7.19693 18.6275 7.25373 18.4933 7.32188C18.2247 7.45819 17.8666 7.6399 17.5083 7.82155C17.15 8.00319 16.7916 8.18476 16.5225 8.32077C16.3879 8.38878 16.2756 8.44539 16.1969 8.48493C16.1575 8.5047 16.1266 8.52018 16.1054 8.53069C16.0956 8.53556 16.0879 8.53934 16.0825 8.54196L14.3508 7.66339L15.5994 7.03437C15.8226 6.9214 15.8229 6.63833 15.5999 6.52487Z" fill="white"/>
<path fill-rule="evenodd" clip-rule="evenodd" d="M12.6604 10.812C12.5966 10.6953 12.4935 10.596 12.3612 10.529L8.7395 8.67488L8.7479 6.90594L12.7535 8.93451L14.0034 9.57986C14.3447 9.75584 14.5514 10.0786 14.5453 10.4251L14.5228 11.6213L14.4367 16.4009C14.4315 16.6849 14.0793 16.8593 13.7985 16.717L8.93961 14.2544L10.7336 13.3441L12.2117 14.0926C12.4316 14.204 12.707 14.0663 12.7091 13.844L12.7336 11.0989C12.7337 11.0874 12.7335 11.076 12.733 11.0646C12.7297 10.976 12.704 10.89 12.6604 10.812Z" fill="#74DBE1"/>
<path fill-rule="evenodd" clip-rule="evenodd" d="M19.2203 7.10329C19.2295 7.09038 19.2375 7.07709 19.2446 7.06342L19.2543 8.62861C19.2543 8.87485 19.098 9.02134 18.8926 9.12468L16.4699 10.3432V9.3925C16.4749 9.13055 16.4129 8.8429 16.2242 8.66314L19.0129 7.26281L19.0131 7.26274C19.1088 7.21657 19.1766 7.16481 19.2203 7.10329Z" fill="#C6C6C6"/>
<path fill-rule="evenodd" clip-rule="evenodd" d="M12.0259 6.50866L10.29 5.62525L10.2958 4.9441L11.8142 4.17009C11.897 4.12787 11.989 4.12842 12.0652 4.15887L12.0259 6.50866Z" fill="#442B8C"/>
<path fill-rule="evenodd" clip-rule="evenodd" d="M9.12293 14.6191C9.04753 14.6619 8.94941 14.6971 8.85001 14.677C8.78148 14.6631 8.74929 14.6078 8.73493 14.5489C8.72789 14.5201 8.7256 14.492 8.72509 14.4711C8.72484 14.4606 8.72504 14.452 8.72529 14.4461L8.7253 14.4459L8.89092 14.3602L9.22975 14.5442C9.22505 14.5482 9.21941 14.5529 9.21291 14.5581C9.19128 14.5754 9.16032 14.5979 9.12293 14.6191Z" fill="#442B8C"/>
</svg>
